<svg width="542" height="122" viewBox="0 0 542 122" fill="none" xmlns="http://www.w3.org/2000/svg">
<path d="M168.677 21.924C166.717 23.884 164.319 24.864 161.481 24.864C158.644 24.864 156.236 23.884 154.257 21.924C152.297 19.9453 151.317 17.5373 151.317 14.7C151.317 11.8627 152.297 9.464 154.257 7.504C156.236 5.52533 158.644 4.536 161.481 4.536C164.319 4.536 166.717 5.52533 168.677 7.504C170.656 9.464 171.645 11.8627 171.645 14.7C171.645 17.5373 170.656 19.9453 168.677 21.924ZM156.525 19.74C157.888 21.0653 159.54 21.728 161.481 21.728C163.441 21.728 165.084 21.0653 166.409 19.74C167.753 18.396 168.425 16.716 168.425 14.7C168.425 12.684 167.753 11.0133 166.409 9.688C165.084 8.344 163.441 7.672 161.481 7.672C159.521 7.672 157.869 8.344 156.525 9.688C155.2 11.0133 154.537 12.684 154.537 14.7C154.537 16.6973 155.2 18.3773 156.525 19.74ZM171.603 10.5H183.783V13.412H179.219V24.5H176.195V13.412H171.603V10.5ZM190.521 17.36L196.905 24.5H193.293L187.553 18.032V24.5H184.529V10.5H187.553V16.688L192.985 10.5H196.681L190.521 17.36ZM205.563 10.136C207.467 10.136 209.11 10.8547 210.491 12.292C211.854 13.7107 212.535 15.4467 212.535 17.5C212.535 19.572 211.854 21.3173 210.491 22.736C209.128 24.1547 207.486 24.864 205.563 24.864C203.454 24.864 201.82 24.08 200.663 22.512V30.1H197.639V10.5H200.663V12.516C201.802 10.9293 203.435 10.136 205.563 10.136ZM201.923 20.72C202.763 21.56 203.818 21.98 205.087 21.98C206.356 21.98 207.411 21.56 208.251 20.72C209.091 19.8613 209.511 18.788 209.511 17.5C209.511 16.212 209.091 15.148 208.251 14.308C207.411 13.4493 206.356 13.02 205.087 13.02C203.818 13.02 202.763 13.4493 201.923 14.308C201.083 15.148 200.663 16.212 200.663 17.5C200.663 18.7693 201.083 19.8427 201.923 20.72ZM217 15.26H220.08C221.592 15.26 222.814 15.6893 223.748 16.548C224.7 17.388 225.176 18.4987 225.176 19.88C225.176 21.2427 224.7 22.3533 223.748 23.212C222.814 24.0707 221.592 24.5 220.08 24.5H213.976V10.5H217V15.26ZM226.856 24.5V10.5H229.88V24.5H226.856ZM217 21.784H220.108C220.705 21.784 221.2 21.6067 221.592 21.252C222.002 20.8973 222.208 20.44 222.208 19.88C222.208 19.32 222.012 18.8627 221.62 18.508C221.228 18.1533 220.724 17.976 220.108 17.976H217V21.784ZM230.606 10.5H242.786V13.412H238.222V24.5H235.198V13.412H230.606V10.5ZM246.5 19.376L253.668 10.5H255.992V24.5H253.024V15.596L245.856 24.5H243.532V10.5H246.5V19.376ZM271.725 18.788H260.581C260.805 19.8333 261.309 20.6453 262.093 21.224C262.895 21.8027 263.885 22.092 265.061 22.092C266.647 22.092 267.851 21.5133 268.673 20.356L271.165 21.812C269.802 23.8467 267.758 24.864 265.033 24.864C262.774 24.864 260.935 24.1733 259.517 22.792C258.117 21.392 257.417 19.628 257.417 17.5C257.417 15.428 258.107 13.6827 259.489 12.264C260.851 10.8453 262.625 10.136 264.809 10.136C266.843 10.136 268.523 10.8547 269.849 12.292C271.174 13.7293 271.837 15.4747 271.837 17.528C271.837 17.9013 271.799 18.3213 271.725 18.788ZM260.553 16.324H268.785C268.579 15.2227 268.113 14.3733 267.385 13.776C266.675 13.1787 265.807 12.88 264.781 12.88C263.661 12.88 262.727 13.188 261.981 13.804C261.234 14.42 260.758 15.26 260.553 16.324ZM277.498 6.72L282.65 4.9H285.45V24.5H282.23V8.344L278.282 9.464L277.498 6.72ZM298.096 14.308C300.018 15.372 300.98 16.9587 300.98 19.068C300.98 20.8413 300.354 22.2507 299.104 23.296C297.872 24.3413 296.21 24.864 294.12 24.864C292.029 24.864 290.358 24.3507 289.108 23.324C287.857 22.2973 287.232 20.8787 287.232 19.068C287.232 18.06 287.484 17.1453 287.988 16.324C288.492 15.484 289.201 14.812 290.116 14.308C288.641 13.3373 287.904 11.956 287.904 10.164C287.904 8.372 288.501 6.99067 289.696 6.02C290.909 5.03067 292.384 4.536 294.12 4.536C295.837 4.536 297.302 5.03067 298.516 6.02C299.729 7.00933 300.336 8.39067 300.336 10.164C300.336 11.9373 299.589 13.3187 298.096 14.308ZM294.12 7.588C293.224 7.588 292.496 7.83067 291.936 8.316C291.394 8.78267 291.124 9.44533 291.124 10.304C291.124 11.1253 291.404 11.788 291.964 12.292C292.524 12.7773 293.242 13.02 294.12 13.02C294.978 13.02 295.688 12.7773 296.248 12.292C296.826 11.788 297.116 11.1253 297.116 10.304C297.116 9.44533 296.836 8.78267 296.276 8.316C295.716 7.83067 294.997 7.588 294.12 7.588ZM294.12 21.812C295.221 21.812 296.098 21.5413 296.752 21C297.424 20.4587 297.76 19.712 297.76 18.76C297.76 17.808 297.424 17.0613 296.752 16.52C296.098 15.9787 295.221 15.708 294.12 15.708C293 15.708 292.104 15.9787 291.432 16.52C290.778 17.0613 290.452 17.808 290.452 18.76C290.452 19.712 290.778 20.4587 291.432 21C292.104 21.5413 293 21.812 294.12 21.812ZM304.231 20.636C304.81 20.636 305.304 20.8413 305.715 21.252C306.126 21.6627 306.331 22.1573 306.331 22.736C306.331 23.3147 306.126 23.8093 305.715 24.22C305.304 24.6307 304.81 24.836 304.231 24.836C303.652 24.836 303.158 24.6307 302.747 24.22C302.336 23.8093 302.131 23.3147 302.131 22.736C302.131 22.1573 302.327 21.6627 302.719 21.252C303.13 20.8413 303.634 20.636 304.231 20.636ZM306.848 6.72L312 4.9H314.8V24.5H311.58V8.344L307.632 9.464L306.848 6.72ZM329.378 24.5H316.47V21.98L323.302 15.008C324.963 13.3467 325.794 11.9093 325.794 10.696C325.794 9.76267 325.514 9.02533 324.954 8.484C324.394 7.94267 323.666 7.672 322.77 7.672C321.127 7.672 319.914 8.484 319.13 10.108L316.414 8.512C317.011 7.224 317.87 6.244 318.99 5.572C320.11 4.88133 321.36 4.536 322.742 4.536C324.478 4.536 325.952 5.07733 327.166 6.16C328.398 7.26133 329.014 8.736 329.014 10.584C329.014 12.5627 327.903 14.6907 325.682 16.968L321.258 21.392H329.378V24.5ZM332.706 20.636C333.285 20.636 333.779 20.8413 334.19 21.252C334.601 21.6627 334.806 22.1573 334.806 22.736C334.806 23.3147 334.601 23.8093 334.19 24.22C333.779 24.6307 333.285 24.836 332.706 24.836C332.127 24.836 331.633 24.6307 331.222 24.22C330.811 23.8093 330.606 23.3147 330.606 22.736C330.606 22.1573 330.802 21.6627 331.194 21.252C331.605 20.8413 332.109 20.636 332.706 20.636ZM348.735 24.5H335.827V21.98L342.659 15.008C344.32 13.3467 345.151 11.9093 345.151 10.696C345.151 9.76267 344.871 9.02533 344.311 8.484C343.751 7.94267 343.023 7.672 342.127 7.672C340.484 7.672 339.271 8.484 338.487 10.108L335.771 8.512C336.368 7.224 337.227 6.244 338.347 5.572C339.467 4.88133 340.717 4.536 342.099 4.536C343.835 4.536 345.309 5.07733 346.523 6.16C347.755 7.26133 348.371 8.736 348.371 10.584C348.371 12.5627 347.26 14.6907 345.039 16.968L340.615 21.392H348.735V24.5ZM362.681 22.092C361.337 23.94 359.452 24.864 357.025 24.864C354.617 24.864 352.723 23.94 351.341 22.092C349.997 20.244 349.325 17.78 349.325 14.7C349.325 11.62 349.997 9.156 351.341 7.308C352.723 5.46 354.617 4.536 357.025 4.536C359.452 4.536 361.337 5.46 362.681 7.308C364.044 9.13733 364.725 11.6013 364.725 14.7C364.725 17.7987 364.044 20.2627 362.681 22.092ZM357.025 21.728C358.481 21.728 359.592 21.1213 360.357 19.908C361.123 18.6947 361.505 16.9587 361.505 14.7C361.505 12.4413 361.123 10.7053 360.357 9.492C359.592 8.27867 358.481 7.672 357.025 7.672C355.588 7.672 354.477 8.27867 353.693 9.492C352.928 10.7053 352.545 12.4413 352.545 14.7C352.545 16.9587 352.928 18.6947 353.693 19.908C354.477 21.1213 355.588 21.728 357.025 21.728ZM377.908 24.5H365V21.98L371.832 15.008C373.493 13.3467 374.324 11.9093 374.324 10.696C374.324 9.76267 374.044 9.02533 373.484 8.484C372.924 7.94267 372.196 7.672 371.3 7.672C369.657 7.672 368.444 8.484 367.66 10.108L364.944 8.512C365.541 7.224 366.4 6.244 367.52 5.572C368.64 4.88133 369.891 4.536 371.272 4.536C373.008 4.536 374.483 5.07733 375.696 6.16C376.928 7.26133 377.544 8.736 377.544 10.584C377.544 12.5627 376.433 14.6907 374.212 16.968L369.788 21.392H377.908V24.5ZM390.707 7.644L386.731 12.908C388.187 13.244 389.344 13.916 390.203 14.924C391.08 15.9133 391.519 17.1267 391.519 18.564C391.519 20.524 390.856 22.064 389.531 23.184C388.224 24.304 386.6 24.864 384.659 24.864C383.128 24.864 381.775 24.5187 380.599 23.828C379.423 23.1187 378.583 22.1107 378.079 20.804L380.823 19.208C381.402 20.888 382.68 21.728 384.659 21.728C385.779 21.728 386.666 21.448 387.319 20.888C387.972 20.3093 388.299 19.5347 388.299 18.564C388.299 17.5933 387.972 16.828 387.319 16.268C386.666 15.708 385.779 15.428 384.659 15.428H383.931L382.643 13.496L386.871 7.924H378.667V4.9H390.707V7.644Z" fill="#282828"/>
<g clip-path="url(#clip0_721_14053)">
<rect x="0.5" y="73.5" width="541" height="48" rx="24" fill="#F3F4F6"/>
<g clip-path="url(#clip1_721_14053)">
<mask id="mask0_721_14053" style="mask-type:alpha" maskUnits="userSpaceOnUse" x="0" y="73" width="597" height="49">
<rect x="0.5" y="73.5" width="596" height="48" rx="24" fill="#D9D9D9"/>
</mask>
<g mask="url(#mask0_721_14053)">
<rect x="0.5" y="73.5" width="541" height="48" rx="24" fill="url(#paint0_linear_721_14053)"/>
<rect x="0.5" y="73.5" width="541" height="48" rx="24" fill="#061540"/>
</g>
<path d="M33.5 90.9401V96.2297C33.5 104.295 26.3919 106.971 24.9688 107.426C24.6648 107.525 24.3352 107.525 24.0312 107.426C22.6062 106.971 15.5 104.295 15.5 96.2297V90.9401C15.5 90.5582 15.658 90.1919 15.9393 89.9218C16.2206 89.6517 16.6022 89.5 17 89.5H32C32.3978 89.5 32.7794 89.6517 33.0607 89.9218C33.342 90.1919 33.5 90.5582 33.5 90.9401Z" fill="#3D9EFF"/>
</g>
<path d="M494.737 103.808C493.576 103.808 492.589 103.494 491.775 102.867C490.96 102.234 490.459 101.396 490.272 100.354H492.53C492.677 100.834 492.946 101.215 493.339 101.496C493.737 101.771 494.209 101.909 494.754 101.909C495.68 101.909 496.404 101.502 496.925 100.688C497.446 99.8672 497.707 98.7305 497.707 97.2773H497.628H497.584H497.558C497.259 97.8809 496.822 98.3496 496.248 98.6836C495.674 99.0117 495.015 99.1758 494.271 99.1758C493.064 99.1758 492.065 98.7773 491.274 97.9805C490.488 97.1836 490.096 96.1758 490.096 94.957C490.096 93.6562 490.535 92.5898 491.414 91.7578C492.299 90.9199 493.43 90.501 494.807 90.501C495.733 90.501 496.553 90.7148 497.268 91.1426C497.983 91.5703 498.554 92.1914 498.982 93.0059C499.579 94.0664 499.878 95.4023 499.878 97.0137C499.878 99.1465 499.424 100.813 498.516 102.015C497.608 103.21 496.348 103.808 494.737 103.808ZM493.023 96.6797C493.491 97.1426 494.089 97.374 494.816 97.374C495.542 97.374 496.143 97.1426 496.617 96.6797C497.092 96.2168 497.329 95.6309 497.329 94.9219C497.329 94.207 497.089 93.6064 496.609 93.1201C496.128 92.6338 495.533 92.3906 494.824 92.3906C494.115 92.3906 493.521 92.6309 493.04 93.1113C492.56 93.5859 492.32 94.1777 492.32 94.8867C492.32 95.6133 492.554 96.2109 493.023 96.6797ZM506.483 103.816C505.176 103.816 504.104 103.459 503.266 102.744C502.428 102.029 501.983 101.109 501.93 99.9844H504.057C504.128 100.564 504.388 101.033 504.839 101.391C505.291 101.748 505.844 101.927 506.501 101.927C507.245 101.927 507.845 101.698 508.302 101.241C508.765 100.778 508.997 100.169 508.997 99.4131C508.997 98.6572 508.765 98.0449 508.302 97.5762C507.845 97.1016 507.251 96.8643 506.518 96.8643C506.003 96.8643 505.543 96.9727 505.138 97.1895C504.74 97.4062 504.423 97.7139 504.189 98.1123H502.132L502.792 90.8174H510.429V92.7334H504.549L504.242 96.293H504.391C504.977 95.502 505.871 95.1064 507.072 95.1064C508.273 95.1064 509.257 95.5049 510.025 96.3018C510.798 97.0986 511.185 98.1182 511.185 99.3604C511.185 100.685 510.752 101.76 509.884 102.586C509.023 103.406 507.889 103.816 506.483 103.816ZM517.412 91.4326C517.939 92.0127 518.203 92.7715 518.203 93.709C518.203 94.6465 517.937 95.4082 517.403 95.9941C516.876 96.5801 516.188 96.873 515.338 96.873C514.482 96.873 513.788 96.5801 513.255 95.9941C512.722 95.4082 512.455 94.6465 512.455 93.709C512.455 92.7715 512.722 92.0127 513.255 91.4326C513.788 90.8467 514.482 90.5537 515.338 90.5537C516.193 90.5537 516.885 90.8467 517.412 91.4326ZM515.338 95.3877C515.672 95.3877 515.938 95.2354 516.138 94.9307C516.343 94.626 516.445 94.2158 516.445 93.7002C516.445 93.1787 516.346 92.7715 516.146 92.4785C515.953 92.1797 515.684 92.0303 515.338 92.0303C514.992 92.0303 514.72 92.1797 514.521 92.4785C514.321 92.7773 514.222 93.1846 514.222 93.7002C514.222 94.2158 514.321 94.626 514.521 94.9307C514.726 95.2354 514.998 95.3877 515.338 95.3877ZM515.856 103.5H513.694L518.502 96.873L522.545 90.8174H524.698L519.812 97.5322L515.856 103.5ZM525.876 100.6C525.876 101.543 525.609 102.308 525.076 102.894C524.549 103.474 523.86 103.764 523.011 103.764C522.155 103.764 521.461 103.471 520.928 102.885C520.4 102.299 520.137 101.537 520.137 100.6C520.137 99.6621 520.4 98.9033 520.928 98.3232C521.461 97.7373 522.155 97.4443 523.011 97.4443C523.86 97.4443 524.549 97.7373 525.076 98.3232C525.609 98.9033 525.876 99.6621 525.876 100.6ZM523.011 102.278C523.345 102.278 523.611 102.126 523.811 101.821C524.016 101.517 524.118 101.109 524.118 100.6C524.118 100.078 524.019 99.668 523.819 99.3691C523.626 99.0703 523.356 98.9209 523.011 98.9209C522.671 98.9209 522.398 99.0732 522.193 99.3779C521.994 99.6768 521.895 100.084 521.895 100.6C521.895 101.115 521.994 101.525 522.193 101.83C522.398 102.129 522.671 102.278 523.011 102.278Z" fill="#282828"/>
<path d="M244.106 93.1V100.18H247.526V101.5H242.726V93.1H244.106ZM254.931 100.396C254.091 101.236 253.063 101.656 251.847 101.656C250.631 101.656 249.599 101.236 248.751 100.396C247.911 99.548 247.491 98.516 247.491 97.3C247.491 96.084 247.911 95.056 248.751 94.216C249.599 93.368 250.631 92.944 251.847 92.944C253.063 92.944 254.091 93.368 254.931 94.216C255.779 95.056 256.203 96.084 256.203 97.3C256.203 98.516 255.779 99.548 254.931 100.396ZM249.723 99.46C250.307 100.028 251.015 100.312 251.847 100.312C252.687 100.312 253.391 100.028 253.959 99.46C254.535 98.884 254.823 98.164 254.823 97.3C254.823 96.436 254.535 95.72 253.959 95.152C253.391 94.576 252.687 94.288 251.847 94.288C251.007 94.288 250.299 94.576 249.723 95.152C249.155 95.72 248.871 96.436 248.871 97.3C248.871 98.156 249.155 98.876 249.723 99.46ZM264.005 101.5H262.517L261.929 99.808H258.353L257.765 101.5H256.265L259.313 93.1H260.969L264.005 101.5ZM260.141 94.72L258.809 98.512H261.473L260.141 94.72ZM264.808 93.1H268.108C269.26 93.1 270.216 93.504 270.976 94.312C271.744 95.12 272.128 96.116 272.128 97.3C272.128 98.476 271.744 99.472 270.976 100.288C270.216 101.096 269.26 101.5 268.108 101.5H264.808V93.1ZM266.188 100.18H268.108C268.9 100.18 269.544 99.908 270.04 99.364C270.544 98.82 270.796 98.132 270.796 97.3C270.796 96.468 270.544 95.78 270.04 95.236C269.544 94.692 268.9 94.42 268.108 94.42H266.188V100.18ZM273.286 101.5V93.1H274.666V101.5H273.286ZM281.285 98.8V93.1H282.665V101.5H281.585L277.625 95.8V101.5H276.245V93.1H277.325L281.285 98.8ZM288.215 97.156H292.415V97.732C292.415 98.884 292.035 99.828 291.275 100.564C290.523 101.292 289.531 101.656 288.299 101.656C287.003 101.656 285.931 101.236 285.083 100.396C284.243 99.556 283.823 98.524 283.823 97.3C283.823 96.084 284.243 95.056 285.083 94.216C285.931 93.368 286.979 92.944 288.227 92.944C289.003 92.944 289.715 93.124 290.363 93.484C291.019 93.836 291.527 94.32 291.887 94.936L290.699 95.62C290.475 95.212 290.143 94.888 289.703 94.648C289.263 94.408 288.771 94.288 288.227 94.288C287.347 94.288 286.623 94.576 286.055 95.152C285.487 95.736 285.203 96.456 285.203 97.312C285.203 98.176 285.487 98.892 286.055 99.46C286.639 100.028 287.391 100.312 288.311 100.312C289.047 100.312 289.651 100.14 290.123 99.796C290.595 99.452 290.895 98.984 291.023 98.392H288.215V97.156ZM293.675 99.844C293.923 99.844 294.135 99.932 294.311 100.108C294.487 100.284 294.575 100.496 294.575 100.744C294.575 100.992 294.487 101.204 294.311 101.38C294.135 101.556 293.923 101.644 293.675 101.644C293.427 101.644 293.215 101.556 293.039 101.38C292.863 101.204 292.775 100.992 292.775 100.744C292.775 100.496 292.859 100.284 293.027 100.108C293.203 99.932 293.419 99.844 293.675 99.844ZM296.633 99.844C296.881 99.844 297.093 99.932 297.269 100.108C297.445 100.284 297.533 100.496 297.533 100.744C297.533 100.992 297.445 101.204 297.269 101.38C297.093 101.556 296.881 101.644 296.633 101.644C296.385 101.644 296.173 101.556 295.997 101.38C295.821 101.204 295.733 100.992 295.733 100.744C295.733 100.496 295.817 100.284 295.985 100.108C296.161 99.932 296.377 99.844 296.633 99.844ZM299.592 99.844C299.84 99.844 300.052 99.932 300.228 100.108C300.404 100.284 300.492 100.496 300.492 100.744C300.492 100.992 300.404 101.204 300.228 101.38C300.052 101.556 299.84 101.644 299.592 101.644C299.344 101.644 299.132 101.556 298.956 101.38C298.78 101.204 298.692 100.992 298.692 100.744C298.692 100.496 298.776 100.284 298.944 100.108C299.12 99.932 299.336 99.844 299.592 99.844Z" fill="white"/>
</g>
<defs>
<linearGradient id="paint0_linear_721_14053" x1="541.5" y1="97.4999" x2="-4.43924" y2="95.0931" gradientUnits="userSpaceOnUse">
<stop stop-color="#A170F6"/>
<stop offset="1" stop-color="#F82A38"/>
</linearGradient>
<clipPath id="clip0_721_14053">
<rect x="0.5" y="73.5" width="541" height="48" rx="24" fill="white"/>
</clipPath>
<clipPath id="clip1_721_14053">
<rect x="0.5" y="73.5" width="476" height="48" rx="24" fill="white"/>
</clipPath>
</defs>
</svg>
